<svg xmlns="http://www.w3.org/2000/svg" width="800" height="90" viewBox="0 0 800 90">
  <defs>

    <clipPath id="c">
      <path d="M0,0 L800,0 L800,74
        C783,70 771,78 754,73
        C737,68 723,78 706,73
        C689,68 674,77 657,72
        C640,67 625,77 608,72
        C591,67 576,76 558,72
        C540,68 525,77 507,72
        C489,67 475,77 457,72
        C439,67 424,77 406,73
        C388,69 374,77 356,73
        C338,69 323,78 305,73
        C287,68 272,78 254,73
        C236,68 221,78 203,73
        C185,68 170,78 152,73
        C134,68 119,77 101,73
        C83,69 68,77 50,73
        C32,69 17,77 0,74 Z"/>
    </clipPath>

    <linearGradient id="shade" x1="0" y1="0" x2="0" y2="1">
      <stop offset="0%"   stop-color="#8b5e3c" stop-opacity="0.22"/>
      <stop offset="70%"  stop-color="#8b5e3c" stop-opacity="0.04"/>
      <stop offset="100%" stop-color="#8b5e3c" stop-opacity="0"/>
    </linearGradient>

    <filter id="grain" x="0%" y="0%" width="100%" height="100%" color-interpolation-filters="sRGB">
      <feTurbulence type="fractalNoise" baseFrequency="0.60 0.80" numOctaves="4" seed="9" stitchTiles="stitch" result="noise"/>
      <feColorMatrix type="saturate" values="0" in="noise" result="mono"/>
      <feBlend in="SourceGraphic" in2="mono" mode="overlay"/>
    </filter>

  </defs>

  <g clip-path="url(#c)">
    <rect width="800" height="90" fill="#f0e6d3"/>
    <rect width="800" height="90" fill="#f0e6d3" filter="url(#grain)" opacity="0.55"/>
    <rect width="800" height="90" fill="url(#shade)"/>
  </g>

  <line x1="0" y1="1" x2="800" y2="1" stroke="#c4996a" stroke-width="1.5" opacity="0.45" clip-path="url(#c)"/>

</svg>
